<?xml version="1.0" ?><svg id="Layer_1" style="enable-background:new 0 0 50 50;" version="1.1" viewBox="0 0 50 50" xml:space="preserve" xmlns="http://www.w3.org/2000/svg" xmlns:xlink="http://www.w3.org/1999/xlink"><style type="text/css">
	.st0{fill:#F0C4DB;}
	.st1{fill:#FF9D9C;}
	.st2{fill:#9BEAF9;}
	.st3{fill:#E9F4BC;}
	.st4{fill:#505050;}
	.st5{fill:#FEBECC;}
	.st6{fill:#FFFFFF;}
	.st7{fill:#FDE4A1;}
	.st8{fill:#FEE7B5;}
	.st9{fill:#CDF6FC;}
	.st10{fill:#F2C6DD;}
	.st11{opacity:0.1;}
</style><g><path class="st8" d="M48.88,6.07c-3.56-2.78-8.03-4.45-12.9-4.45c-11.6,0-21,9.4-21,21c0,1.55,0.18,3.06,0.5,4.52h33.4V6.07z"/><g><path class="st6" d="M36.08,42.1V2H1.88v18.57v20.68c0,1.59,0.41,3.18,1.31,4.49c0.14,0.2,0.28,0.39,0.42,0.53    C4.67,47.34,6.14,48,7.77,48l-0.09,0h34.3"/><rect class="st1" height="16.66" transform="matrix(-1 -6.000768e-11 6.000768e-11 -1 49.865 28.4674)" width="12.52" x="18.67" y="5.9"/><path class="st2" d="M36.08,20.57V42.1c0,1.62,0.66,3.1,1.72,4.17c1.07,1.07,2.54,1.73,4.17,1.73c3.26,0,5.9-2.64,5.9-5.9V20.57    H36.08z"/><g><path class="st4" d="M47.88,19.82h-1.9c-0.41,0-0.75,0.34-0.75,0.75s0.34,0.75,0.75,0.75h1.15V42.1c0,2.84-2.31,5.15-5.15,5.15     c-1.38,0-2.67-0.53-3.64-1.51s-1.51-2.26-1.51-3.64V21.32h4.98c0.41,0,0.75-0.34,0.75-0.75s-0.34-0.75-0.75-0.75h-4.98V2     c0-0.41-0.34-0.75-0.75-0.75H1.88C1.46,1.25,1.13,1.59,1.13,2v39.25c0,1.83,0.5,3.53,1.43,4.91c0.18,0.26,0.34,0.47,0.51,0.64     c1.22,1.22,2.84,1.91,4.56,1.94c0.02,0,0.03,0,0.05,0h34.3c3.66,0,6.65-2.98,6.65-6.65V20.57     C48.63,20.16,48.29,19.82,47.88,19.82z M7.77,47.25c-1.38,0-2.67-0.53-3.64-1.51c-0.11-0.11-0.22-0.25-0.33-0.42     c-0.77-1.14-1.18-2.55-1.18-4.07V2.75h32.71v17.82V42.1c0,1.78,0.69,3.45,1.94,4.7c0.16,0.16,0.32,0.31,0.49,0.44H7.77z"/><path class="st4" d="M31.19,5.15H18.67c-0.41,0-0.75,0.34-0.75,0.75v16.66c0,0.41,0.34,0.75,0.75,0.75h12.52     c0.41,0,0.75-0.34,0.75-0.75V5.9C31.94,5.49,31.61,5.15,31.19,5.15z M30.44,21.81H19.42V6.65h11.02V21.81z"/><path class="st4" d="M6.15,10.65h8.26c0.41,0,0.75-0.34,0.75-0.75s-0.34-0.75-0.75-0.75H6.15C5.73,9.15,5.4,9.49,5.4,9.9     S5.73,10.65,6.15,10.65z"/><path class="st4" d="M6.15,14.87h8.26c0.41,0,0.75-0.34,0.75-0.75s-0.34-0.75-0.75-0.75H6.15c-0.41,0-0.75,0.34-0.75,0.75     S5.73,14.87,6.15,14.87z"/><path class="st4" d="M6.15,19.09h8.26c0.41,0,0.75-0.34,0.75-0.75s-0.34-0.75-0.75-0.75H6.15c-0.41,0-0.75,0.34-0.75,0.75     S5.73,19.09,6.15,19.09z"/><path class="st4" d="M6.15,23.31h8.51c0.41,0,0.75-0.34,0.75-0.75s-0.34-0.75-0.75-0.75H6.15c-0.41,0-0.75,0.34-0.75,0.75     S5.73,23.31,6.15,23.31z"/><path class="st4" d="M31.19,26.03H6.15c-0.41,0-0.75,0.34-0.75,0.75s0.34,0.75,0.75,0.75h25.05c0.41,0,0.75-0.34,0.75-0.75     S31.61,26.03,31.19,26.03z"/><path class="st4" d="M31.19,30.26H6.15c-0.41,0-0.75,0.34-0.75,0.75s0.34,0.75,0.75,0.75h25.05c0.41,0,0.75-0.34,0.75-0.75     S31.61,30.26,31.19,30.26z"/><path class="st4" d="M31.19,34.48H6.15c-0.41,0-0.75,0.34-0.75,0.75s0.34,0.75,0.75,0.75h25.05c0.41,0,0.75-0.34,0.75-0.75     S31.61,34.48,31.19,34.48z"/><path class="st4" d="M31.19,38.7H6.15c-0.41,0-0.75,0.34-0.75,0.75s0.34,0.75,0.75,0.75h25.05c0.41,0,0.75-0.34,0.75-0.75     S31.61,38.7,31.19,38.7z"/><path class="st4" d="M24.93,17.88c-0.8,0-1.45-0.65-1.45-1.45c0-0.41-0.34-0.75-0.75-0.75s-0.75,0.34-0.75,0.75     c0,1.36,0.94,2.5,2.2,2.84v0.49c0,0.41,0.34,0.75,0.75,0.75s0.75-0.34,0.75-0.75v-0.49c1.26-0.33,2.2-1.47,2.2-2.84     c0-1.63-1.32-2.95-2.95-2.95c-0.8,0-1.45-0.65-1.45-1.45s0.65-1.45,1.45-1.45s1.45,0.65,1.45,1.45c0,0.41,0.34,0.75,0.75,0.75     s0.75-0.34,0.75-0.75c0-1.36-0.94-2.5-2.2-2.84V8.71c0-0.41-0.34-0.75-0.75-0.75s-0.75,0.34-0.75,0.75V9.2     c-1.26,0.33-2.2,1.47-2.2,2.84c0,1.63,1.32,2.95,2.95,2.95c0.8,0,1.45,0.65,1.45,1.45S25.73,17.88,24.93,17.88z"/><circle class="st4" cx="43.84" cy="20.57" r="0.75"/></g></g></g></svg>